<svg width="426" height="212" viewBox="0 0 426 212" fill="none" xmlns="http://www.w3.org/2000/svg">
<path d="M208.36 94.4H224.248C227.928 94.4 231.192 95.088 234.04 96.464C236.888 97.84 239.096 99.792 240.664 102.32C242.232 104.848 243.016 107.808 243.016 111.2C243.016 114.592 242.232 117.552 240.664 120.08C239.096 122.608 236.888 124.56 234.04 125.936C231.192 127.312 227.928 128 224.248 128H208.36V94.4ZM223.864 120.416C226.744 120.416 229.048 119.6 230.776 117.968C232.536 116.336 233.416 114.08 233.416 111.2C233.416 108.32 232.536 106.064 230.776 104.432C229.048 102.8 226.744 101.984 223.864 101.984H217.864V120.416H223.864ZM281.472 101.552C284.672 101.552 287.216 102.512 289.104 104.432C291.024 106.352 291.984 109.248 291.984 113.12V128H282.864V114.608C282.864 112.784 282.512 111.44 281.808 110.576C281.136 109.712 280.176 109.28 278.928 109.28C277.552 109.28 276.448 109.76 275.616 110.72C274.784 111.68 274.368 113.136 274.368 115.088V128H265.248V114.608C265.248 111.056 263.936 109.28 261.312 109.28C259.904 109.28 258.784 109.76 257.952 110.72C257.12 111.68 256.704 113.136 256.704 115.088V128H247.584V101.984H256.272V104.72C257.232 103.664 258.368 102.88 259.68 102.368C261.024 101.824 262.48 101.552 264.048 101.552C265.872 101.552 267.504 101.888 268.944 102.56C270.384 103.232 271.552 104.256 272.448 105.632C273.472 104.32 274.768 103.312 276.336 102.608C277.904 101.904 279.616 101.552 281.472 101.552ZM324.708 115.04C324.708 115.104 324.66 115.856 324.564 117.296H305.652C306.036 118.64 306.772 119.68 307.859 120.416C308.98 121.12 310.372 121.472 312.036 121.472C313.284 121.472 314.356 121.296 315.252 120.944C316.18 120.592 317.108 120.016 318.036 119.216L322.836 124.208C320.308 127.024 316.612 128.432 311.748 128.432C308.708 128.432 306.036 127.856 303.732 126.704C301.428 125.552 299.636 123.952 298.355 121.904C297.108 119.856 296.484 117.536 296.484 114.944C296.484 112.384 297.092 110.096 298.308 108.08C299.556 106.032 301.268 104.432 303.444 103.28C305.62 102.128 308.068 101.552 310.788 101.552C313.38 101.552 315.732 102.096 317.844 103.184C319.956 104.24 321.62 105.792 322.836 107.84C324.084 109.856 324.708 112.256 324.708 115.04ZM310.836 108.032C309.428 108.032 308.244 108.432 307.284 109.232C306.356 110.032 305.764 111.12 305.508 112.496H316.164C315.908 111.12 315.3 110.032 314.34 109.232C313.412 108.432 312.244 108.032 310.836 108.032ZM337.6 105.104C338.528 103.92 339.728 103.04 341.2 102.464C342.704 101.856 344.416 101.552 346.336 101.552V109.76C345.504 109.664 344.816 109.616 344.272 109.616C342.32 109.616 340.784 110.144 339.664 111.2C338.576 112.256 338.032 113.872 338.032 116.048V128H328.912V101.984H337.6V105.104ZM377.85 101.984V123.248C377.85 128.08 376.538 131.696 373.914 134.096C371.29 136.528 367.514 137.744 362.586 137.744C360.026 137.744 357.626 137.456 355.386 136.88C353.146 136.304 351.242 135.456 349.674 134.336L352.986 127.952C354.042 128.816 355.37 129.488 356.97 129.968C358.602 130.48 360.202 130.736 361.77 130.736C364.17 130.736 365.93 130.208 367.05 129.152C368.17 128.096 368.73 126.528 368.73 124.448V123.584C366.97 125.632 364.394 126.656 361.002 126.656C358.698 126.656 356.57 126.144 354.618 125.12C352.666 124.064 351.114 122.592 349.962 120.704C348.81 118.784 348.234 116.576 348.234 114.08C348.234 111.616 348.81 109.44 349.962 107.552C351.114 105.632 352.666 104.16 354.618 103.136C356.57 102.08 358.698 101.552 361.002 101.552C364.714 101.552 367.434 102.752 369.162 105.152V101.984H377.85ZM363.162 119.408C364.794 119.408 366.138 118.912 367.194 117.92C368.282 116.928 368.826 115.648 368.826 114.08C368.826 112.512 368.298 111.248 367.242 110.288C366.186 109.296 364.826 108.8 363.162 108.8C361.498 108.8 360.122 109.296 359.034 110.288C357.978 111.248 357.45 112.512 357.45 114.08C357.45 115.648 357.994 116.928 359.082 117.92C360.17 118.912 361.53 119.408 363.162 119.408ZM410.301 115.04C410.301 115.104 410.253 115.856 410.157 117.296H391.245C391.629 118.64 392.365 119.68 393.453 120.416C394.573 121.12 395.965 121.472 397.629 121.472C398.877 121.472 399.949 121.296 400.845 120.944C401.773 120.592 402.701 120.016 403.629 119.216L408.429 124.208C405.901 127.024 402.205 128.432 397.341 128.432C394.301 128.432 391.629 127.856 389.325 126.704C387.021 125.552 385.229 123.952 383.949 121.904C382.701 119.856 382.077 117.536 382.077 114.944C382.077 112.384 382.685 110.096 383.901 108.08C385.149 106.032 386.861 104.432 389.037 103.28C391.213 102.128 393.661 101.552 396.381 101.552C398.973 101.552 401.325 102.096 403.437 103.184C405.549 104.24 407.213 105.792 408.429 107.84C409.677 109.856 410.301 112.256 410.301 115.04ZM396.429 108.032C395.021 108.032 393.837 108.432 392.877 109.232C391.949 110.032 391.357 111.12 391.101 112.496H401.757C401.501 111.12 400.893 110.032 399.933 109.232C399.005 108.432 397.837 108.032 396.429 108.032Z" fill="#55B4C9"/>
<path d="M187.125 34.7983L28.7366 176.787L33.6177 182.219L192.006 40.2299L187.125 34.7983Z" fill="#55B4C9"/>
<path d="M39.7269 133.018L3.69872 165.316C1.69642 167.111 1.53014 170.187 3.32733 172.187L35.6648 208.171C37.462 210.171 40.542 210.337 42.5443 208.542L78.5725 176.244C80.5748 174.449 80.7411 171.373 78.9439 169.373L46.6064 133.389C44.8093 131.389 41.7292 131.223 39.7269 133.018Z" fill="#55B4C9"/>
<path d="M184.292 3.42026L148.264 35.7182C146.262 37.5131 146.096 40.5895 147.893 42.5893L180.23 78.5734C182.027 80.5732 185.107 80.7393 187.11 78.9443L223.138 46.6464C225.14 44.8514 225.307 41.7751 223.509 39.7753L191.172 3.7912C189.375 1.79135 186.295 1.62528 184.292 3.42026Z" fill="#55B4C9"/>
<path d="M171.422 43.1831H55.4152C52.7247 43.1831 50.5436 45.3616 50.5436 48.0488V163.913C50.5436 166.601 52.7247 168.779 55.4152 168.779H171.422C174.112 168.779 176.293 166.601 176.293 163.913V48.0488C176.293 45.3616 174.112 43.1831 171.422 43.1831Z" fill="#3DC5E3" fill-opacity="0.44"/>
<path d="M146.454 68.1199H80.3825C77.692 68.1199 75.5109 70.2983 75.5109 72.9856V138.977C75.5109 141.664 77.692 143.842 80.3825 143.842H146.454C149.145 143.842 151.326 141.664 151.326 138.977V72.9856C151.326 70.2983 149.145 68.1199 146.454 68.1199Z" fill="#3DC5E3"/>
</svg>

